<svg xmlns="http://www.w3.org/2000/svg" viewBox="82 85.94 576.05 78.12"><title>Logo_1c-Schwarz</title><g id="moweex"><path d="M171.14,85.94c-10.22,0-18,4.2-24.57,11.9-3.92-7.56-11.42-11.9-21.22-11.9-10.78,0-17.4,5.74-22.2,12V87.64H82v74.8h21.2V120.52c0-10.08,4.83-15.26,12.81-15.26s12.39,5.18,12.39,15.26v41.92H150V120.52c0-10.08,4.83-15.26,12.81-15.26s12.39,5.18,12.39,15.26v41.92h21.2V113.52C196.35,95.46,187,85.94,171.14,85.94Z"/><path d="M292.35,124.72a37.92,37.92,0,0,0-7.71-23.37l-14.89,14.91a22.25,22.25,0,0,1,1.8,8.74v.28c0,11.06-7.28,20.44-19.46,20.44-11.76,0-19.74-9.66-19.74-20.72v-.28c0-11.06,7.33-20.44,19.51-20.44a20.44,20.44,0,0,1,5,.62l14.54-14.52A43.24,43.24,0,0,0,252,85.94c-23.38,0-40.88,17.5-40.88,39.06v.28c0,21.56,17.22,38.78,40.46,38.78s40.74-17.5,40.74-39.06Z"/><polygon points="388.84 163.24 412.22 87.64 391.08 87.64 378.76 133.22 364.48 87.24 346.14 87.24 332 133.08 319.96 87.64 298.4 87.64 321.5 163.24 340.54 163.24 355.24 117.18 369.66 163.24 388.84 163.24"/><path d="M487.82,150.06l-12.18-10.78c-5.88,5.46-11.06,7.78-18.2,7.78-9.52,0-16.24-5-18.34-14.62h52.22c.14-2,.28-4,.28-5.68,0-21.28-11.49-40.78-36.55-40.78-21.84,0-37.1,17.6-37.1,39v.28c0,23,16.66,38.78,39.2,38.78C470.73,164.06,480.82,158.74,487.82,150.06Zm-32.76-46.78c9,0,14.56,6.36,15.82,16H438.82C440.5,109.64,446.24,103.28,455.06,103.28Z"/><path d="M542.86,164.06c13.58,0,23.72-5.32,30.72-14l-12.15-10.78c-5.88,5.46-11,7.78-18.19,7.78-9.52,0-16.23-5-18.33-14.62h52.23c.14-2,.28-4,.28-5.68,0-21.28-11.6-40.78-36.66-40.78-21.84,0-37.21,17.6-37.21,39v.28C503.55,148.24,520.32,164.06,542.86,164.06Zm-2-60.78c9,0,14.56,6.36,15.83,16H524.63C526.31,109.64,532.05,103.28,540.87,103.28Z"/><polygon points="631.59 124.2 656.93 87.64 634.67 87.64 620.53 109.62 606.53 87.64 583.71 87.64 609.05 124.48 582.73 162.44 604.99 162.44 620.11 139.06 635.23 162.44 658.05 162.44 631.59 124.2"/></g></svg>