<svg width="138" height="35" viewBox="0 0 138 35" fill="none" xmlns="http://www.w3.org/2000/svg">
<path d="M55.9941 9.24805H58.6484V22.216H55.9941V9.24805Z" fill="#EFEFEF"/>
<path d="M60.0527 17.3021C60.0527 14.3353 62.2782 12.1914 65.315 12.1914C68.3633 12.1914 70.5772 14.3353 70.5772 17.3021C70.5772 20.2688 68.3633 22.4128 65.315 22.4128C62.2666 22.4128 60.0527 20.2688 60.0527 17.3021ZM65.315 19.9443C66.7986 19.9443 67.8881 18.8434 67.8881 17.3253C67.8881 15.8071 66.7986 14.7062 65.315 14.7062C63.8313 14.7062 62.7418 15.8071 62.7418 17.3253C62.7418 18.8202 63.8313 19.9443 65.315 19.9443Z" fill="#EFEFEF"/>
<path d="M71.9785 18.0788V12.3887H74.6328V17.7659C74.6328 19.1797 75.2935 19.9562 76.4757 19.9562C77.8666 19.9562 78.7475 19.087 78.7475 17.708V12.4003H81.4018V22.216H78.8982L78.8287 21.0571C78.0753 21.9263 76.9973 22.3898 75.7223 22.3898C73.3694 22.4014 71.9785 20.8833 71.9785 18.0788Z" fill="#EFEFEF"/>
<path d="M82.9902 17.3023C82.9902 14.3356 85.0534 12.1916 87.87 12.1916C89.0058 12.1916 90.0143 12.5393 90.8372 13.1767V9.24805H93.4915V22.216H91.1965L91.0922 21.2309C90.2345 21.9726 89.1333 22.413 87.87 22.413C84.9491 22.413 82.9902 20.1532 82.9902 17.3023ZM88.2525 19.9446C89.7708 19.9446 90.8604 18.8552 90.8604 17.3255C90.8604 15.7957 89.7708 14.7064 88.2525 14.7064C86.7457 14.7064 85.6677 15.7957 85.6677 17.3255C85.6561 18.832 86.7457 19.9446 88.2525 19.9446Z" fill="#EFEFEF"/>
<path d="M94.7656 12.6204V12.4003H97.5242L98.3935 15.2511L99.4135 18.4496L101.604 12.9218H103.621L105.846 18.4612L106.855 15.2395L107.724 12.3887H110.46V12.6089L107.191 22.2044H104.711L103.725 19.6781L102.589 16.6302L101.43 19.6781L100.422 22.2044H97.9763L94.7656 12.6204Z" fill="#EFEFEF"/>
<path d="M110.703 17.3021C110.703 14.3006 112.801 12.1914 115.652 12.1914C116.904 12.1914 118.017 12.6318 118.84 13.3735L118.944 12.3884H121.239V22.2042H118.944L118.84 21.2191C117.982 21.9608 116.881 22.4012 115.652 22.4012C112.708 22.4128 110.703 20.1877 110.703 17.3021ZM116 19.9443C117.507 19.9443 118.585 18.855 118.585 17.3253C118.585 15.7955 117.495 14.7062 116 14.7062C114.482 14.7062 113.392 15.7955 113.392 17.3253C113.392 18.8318 114.482 19.9443 116 19.9443Z" fill="#EFEFEF"/>
<path d="M123.57 9.24805H126.225V22.216H123.57V9.24805Z" fill="#EFEFEF"/>
<path d="M131.08 17.8933V22.216H128.426V9.24805H131.08V16.5838L133.897 12.377H136.887V12.6204L133.665 17.1285L137.212 21.961V22.2044H134.094L131.08 17.8933Z" fill="#EFEFEF"/>
<path d="M50.501 19.9449C48.9826 19.9449 47.9626 18.8671 47.9626 17.3258C47.9626 15.7845 48.9826 14.7067 50.501 14.7067C51.4631 14.7067 52.2628 15.1818 52.6917 15.9815L54.8707 14.6604C54.013 13.1538 52.4135 12.2383 50.4547 12.2383C47.4179 12.2383 45.2852 14.3706 45.2852 17.349C45.2852 20.3273 47.4295 22.4596 50.4547 22.4596C52.4367 22.4596 54.0362 21.5325 54.8939 20.0376L52.6337 18.7976C52.1933 19.4813 51.4515 19.9449 50.501 19.9449Z" fill="#EFEFEF"/>
<path d="M5.99316 6.55859C3.3041 9.31674 1.6582 13.0947 1.6582 17.2551C1.6582 21.4155 3.3041 25.1703 5.99316 27.94C4.57908 24.6604 3.8025 21.0562 3.8025 17.2667C3.77932 13.454 4.57908 9.84983 5.99316 6.55859Z" fill="#EFEFEF"/>
<path d="M7.75515 29.5059C8.92583 30.3983 10.2472 31.1168 11.6497 31.6383C8.63605 27.6285 6.85107 22.6453 6.85107 17.2565C6.85107 11.8445 8.64765 6.8613 11.6728 2.85156C10.2704 3.38465 8.94901 4.09157 7.75515 4.98391C5.8079 8.64599 4.68359 12.818 4.68359 17.2565C4.70678 21.695 5.8079 25.867 7.75515 29.5059Z" fill="#EFEFEF"/>
<path d="M13.225 32.1361C14.3145 32.4142 15.4736 32.5649 16.6443 32.5996C12.518 28.7869 9.93323 23.3286 9.93323 17.2792C9.93323 11.2066 12.518 5.74828 16.6675 1.93555C15.4968 1.97031 14.3609 2.12097 13.2482 2.3991C9.81732 6.39725 7.77734 11.5891 7.77734 17.2676C7.77734 22.9461 9.81732 28.1263 13.225 32.1361Z" fill="#EFEFEF"/>
<path d="M10.8496 17.2677C10.8496 23.4098 13.643 28.9145 18.0127 32.5534C18.882 32.5071 19.7282 32.368 20.5511 32.171C15.8105 28.9029 12.6925 23.4446 12.6925 17.2561C12.6925 11.0561 15.8105 5.59775 20.5627 2.3297C19.7398 2.13269 18.8936 2.00521 18.0243 1.94727C13.6314 5.62093 10.8496 11.114 10.8496 17.2677Z" fill="#EFEFEF"/>
<path d="M13.9102 17.2676C13.9102 23.4097 17.1904 28.7869 22.0933 31.7304C22.8351 31.4639 23.5421 31.151 24.226 30.7918C19.2072 28.3465 15.7647 23.2242 15.7647 17.2676C15.7647 11.3109 19.2303 6.17704 24.2491 3.74338C23.5769 3.38413 22.8583 3.07123 22.1164 2.80469C17.2019 5.75984 13.9102 11.1371 13.9102 17.2676Z" fill="#EFEFEF"/>
<path d="M16.9805 17.2671C16.9805 23.0268 20.4925 27.9405 25.4881 30.0149C25.9981 29.6904 26.4733 29.3079 26.937 28.9139C22.0341 27.3031 18.5105 22.6907 18.5105 17.2671C18.5105 11.8204 22.0572 7.2196 26.9601 5.60875C26.4965 5.21473 26.0213 4.85548 25.5113 4.50781C20.4925 6.58222 16.9805 11.5075 16.9805 17.2671Z" fill="#EFEFEF"/>
<path d="M20.0527 17.2681C20.0527 22.3208 23.53 26.5508 28.2358 27.6981C28.6299 27.2693 28.9892 26.8289 29.337 26.3654C24.9441 25.67 21.5827 21.8573 21.5827 17.2797C21.5827 12.6905 24.9441 8.87779 29.3486 8.19404C29.0008 7.73049 28.6415 7.26694 28.2474 6.86133C23.53 7.98545 20.0527 12.227 20.0527 17.2681Z" fill="#EFEFEF"/>
<path d="M23.4141 17.2671C23.4141 21.2073 26.532 24.4406 30.4381 24.6029C31.6203 22.4242 32.3158 19.921 32.3158 17.2439C32.3158 14.5901 31.6435 12.0753 30.4497 9.9082C26.532 10.0936 23.4141 13.3037 23.4141 17.2671Z" fill="#EFEFEF"/>
</svg>
