<?xml version="1.0" encoding="UTF-8"?><svg id="a" xmlns="http://www.w3.org/2000/svg" xmlns:xlink="http://www.w3.org/1999/xlink" viewBox="0 0 222.1375 76.022"><defs><style>.f{fill:#061939;}.g{fill:url(#c);}.h{clip-path:url(#b);}.i{clip-path:url(#d);}.j{fill:url(#e);}.k{fill:none;}</style><clipPath id="b"><path class="k" d="M107.594,46.904v4.649c0,1.614,.839,3.153,2.264,3.909,5.489,2.917,11.728,4.594,18.366,4.594,6.63499,0,12.873-1.676,18.36101-4.59,1.424-.757,2.26399-2.296,2.26399-3.911v-4.647c0-1.603-1.795-2.498-3.10001-1.566-4.95099,3.532-10.993,5.622-17.52499,5.622-6.534,0-12.578-2.092-17.53-5.626-.364-.259-.766-.377-1.156-.377-1.01,0-1.944,.787-1.944,1.943"/></clipPath><linearGradient id="c" x1="-1374.60787" y1="845.91074" x2="-1373.60787" y2="845.91074" gradientTransform="translate(56816.96456 34950.23307) scale(41.25494 -41.25494)" gradientUnits="userSpaceOnUse"><stop offset="0" stop-color="#dddb00"/><stop offset="1" stop-color="#9cc43f"/></linearGradient><clipPath id="d"><path class="k" d="M116.685,20.626c0-6.364,5.175-11.538,11.534-11.538,6.36301,0,11.53801,5.174,11.53801,11.538,0,6.363-5.175,11.538-11.53801,11.538-6.35899,0-11.534-5.175-11.534-11.538M128.21899,0c-11.37199,0-20.62599,9.25401-20.62599,20.626,0,11.376,9.254,20.63,20.62599,20.63,11.37601,0,20.63101-9.254,20.63101-20.63,0-11.372-9.255-20.626-20.63101-20.626Z"/></clipPath><linearGradient id="e" x1="-1374.60918" y1="846.22042" x2="-1373.60916" y2="846.22042" gradientTransform="translate(56819.17253 34932.73048) scale(41.25651 -41.25651)" xlink:href="#c"/></defs><g><path class="f" d="M201.17751,47.7987c0-2.876,1.513-5.448,5.75099-5.448h6.28v5.599c0,2.724-2.27,5.448-6.05299,5.448-4.011,0-5.978-2.8-5.978-5.599m-9.00401,.151c0,7.415,6.507,13.09,14.98201,13.09,8.09599,0,14.98199-5.599,14.98199-13.09v-13.544c0-8.929-6.054-14.604-15.134-14.604-4.237,0-8.399,1.135-9.912,1.589-1.513,.454-2.34599,1.74-1.892,3.405l.53,1.892c.37801,1.589,1.589,2.345,3.17801,1.891,1.967-.454,5.06999-1.135,8.09599-1.135,4.011,0,6.205,2.497,6.205,6.962v1.437h-6.205c-8.77699,0-14.83,4.086-14.83,12.107m-32.61899-1.816c1.211,8.248,5.37199,13.923,14.30099,13.923h2.043l-1.81599,13.393c-.22701,1.664,.75699,2.572,2.34599,2.572h3.48c1.589,0,2.724-.832,2.951-2.572l6.58301-50.016c.22699-1.74-.75601-2.648-2.345-2.648h-3.55701c-1.589,0-2.799,.983-3.026,2.875l-3.55699,28.753h-2.79901c-3.55699,0-5.146-2.497-5.827-7.037l-3.10201-22.094c-.22699-1.589-1.286-2.497-2.875-2.497h-3.70799c-1.589,0-2.49701,1.21-2.27,2.799l3.17801,22.549Z"/><path class="f" d="M84.799,53.398c3.93401,0,7.188-2.422,7.188-9.232v-7.566c0-6.205-3.102-9.156-7.113-9.156-4.01,0-7.112,2.951-7.112,9.156v14.755c2.345,1.21,4.615,2.043,7.03699,2.043m-7.03699,19.976c0,1.589-1.06001,2.648-2.649,2.648h-3.556c-1.589,0-2.648-1.059-2.648-2.648V36.221c0-10.442,7.339-16.419,15.965-16.419s16.042,5.977,16.042,16.419v8.324c0,11.198-7.34,16.495-15.285,16.495-3.027,0-6.053-1.135-7.869-2.27v14.604ZM43.607,39.853l-9.61-16.041c-.908-1.438-.227-3.027,1.438-3.027h4.313c1.664,0,2.724,.757,3.48,2.195l5.524,9.231,5.826-9.383c.833-1.513,1.968-2.043,3.557-2.043h3.707c1.665,0,2.497,1.514,1.589,3.103l-9.534,15.738,10.518,17.252c.832,1.438,.227,3.178-1.513,3.178h-4.238c-1.589,0-2.799-.832-3.632-2.194l-6.28-10.593-6.507,10.669c-.908,1.437-2.043,2.118-3.632,2.118h-4.011c-1.664,0-2.497-1.437-1.437-3.102l10.442-17.101Zm-22.647-6.81c0,2.876-1.514,5.448-5.751,5.448h-6.28v-5.599c0-2.724,2.27-5.448,6.053-5.448,4.01,0,5.978,2.8,5.978,5.599m9.004-.151c0-7.415-6.507-13.09-14.982-13.09C6.886,19.802,0,25.401,0,32.892v13.544c0,8.929,6.053,14.604,15.133,14.604,4.238,0,8.399-1.135,9.913-1.589,1.513-.454,2.345-1.74,1.891-3.405l-.529-1.892c-.379-1.589-1.589-2.345-3.178-1.891-1.968,.454-5.07,1.135-8.097,1.135-4.01,0-6.204-2.497-6.204-6.962v-1.437h6.204c8.778,0,14.831-4.086,14.831-12.107"/></g><g class="h"><rect class="g" x="107.594" y="44.41001" width="41.255" height="15.646"/></g><g class="i"><rect class="j" x="107.59301" y="0" width="41.257" height="41.256"/></g></svg>